{
	"asset":{
		"generator":"Khronos glTF Blender I/O v4.2.83",
		"version":"2.0"
	},
	"scene":0,
	"scenes":[
		{
			"name":"Scene",
			"nodes":[
				0
			]
		}
	],
	"nodes":[
		{
			"mesh":0,
			"name":"Suzanne",
			"translation":[
				0,
				1.2313652038574219,
				0
			]
		}
	],
	"materials":[
		{
			"doubleSided":true,
			"name":"Material.001",
			"pbrMetallicRoughness":{
				"baseColorFactor":[
					0.8001260757446289,
					0.07694356888532639,
					0.007327742874622345,
					1
				],
				"metallicFactor":0,
				"roughnessFactor":0.5
			}
		}
	],
	"meshes":[
		{
			"extras":{
				"targetNames":[
					"SuzanneSad",
					"SuzanneSmile"
				]
			},
			"name":"Suzanne",
			"primitives":[
				{
					"attributes":{
						"POSITION":0,
						"NORMAL":1,
						"TEXCOORD_0":2
					},
					"indices":3,
					"material":0,
					"targets":[
						{
							"POSITION":4,
							"NORMAL":5
						},
						{
							"POSITION":6,
							"NORMAL":7
						}
					]
				}
			],
			"weights":[
				0,
				0
			]
		}
	],
	"accessors":[
		{
			"bufferView":0,
			"componentType":5126,
			"count":555,
			"max":[
				1.3671875,
				0.984375,
				0.8515625
			],
			"min":[
				-1.3671875,
				-0.984375,
				-0.8515625
			],
			"type":"VEC3"
		},
		{
			"bufferView":1,
			"componentType":5126,
			"count":555,
			"type":"VEC3"
		},
		{
			"bufferView":2,
			"componentType":5126,
			"count":555,
			"type":"VEC2"
		},
		{
			"bufferView":3,
			"componentType":5123,
			"count":2904,
			"type":"SCALAR"
		},
		{
			"bufferView":4,
			"componentType":5126,
			"count":555,
			"max":[
				0.1657710075378418,
				0.17934250831604004,
				0.03590738773345947
			],
			"min":[
				-0.1657710075378418,
				-0.7156280279159546,
				-0.07045900821685791
			],
			"type":"VEC3"
		},
		{
			"bufferView":5,
			"componentType":5126,
			"count":555,
			"type":"VEC3"
		},
		{
			"componentType":5126,
			"count":555,
			"max":[
				0.2247452735900879,
				0.5738677978515625,
				4.780292510986328e-05
			],
			"min":[
				-0.2247452735900879,
				-0.0013916194438934326,
				-0.11119747161865234
			],
			"sparse":{
				"count":362,
				"indices":{
					"bufferView":6,
					"componentType":5123
				},
				"values":{
					"bufferView":7
				}
			},
			"type":"VEC3"
		},
		{
			"bufferView":8,
			"componentType":5126,
			"count":555,
			"type":"VEC3"
		}
	],
	"bufferViews":[
		{
			"buffer":0,
			"byteLength":6660,
			"byteOffset":0,
			"target":34962
		},
		{
			"buffer":0,
			"byteLength":6660,
			"byteOffset":6660,
			"target":34962
		},
		{
			"buffer":0,
			"byteLength":4440,
			"byteOffset":13320,
			"target":34962
		},
		{
			"buffer":0,
			"byteLength":5808,
			"byteOffset":17760,
			"target":34963
		},
		{
			"buffer":0,
			"byteLength":6660,
			"byteOffset":23568,
			"target":34962
		},
		{
			"buffer":0,
			"byteLength":6660,
			"byteOffset":30228,
			"target":34962
		},
		{
			"buffer":0,
			"byteLength":724,
			"byteOffset":36888
		},
		{
			"buffer":0,
			"byteLength":4344,
			"byteOffset":37612
		},
		{
			"buffer":0,
			"byteLength":6660,
			"byteOffset":41956,
			"target":34962
		}
	],
	"buffers":[
		{
			"byteLength":48616,
			"uri":"suzanne.bin"
		}
	]
}
